<?xml version="1.0" encoding="utf-8"?>
<!-- Generator: Adobe Illustrator 27.0.0, SVG Export Plug-In . SVG Version: 6.00 Build 0)  -->
<svg version="1.1" id="Layer_1" xmlns="http://www.w3.org/2000/svg" xmlns:xlink="http://www.w3.org/1999/xlink" x="0px" y="0px"
	 viewBox="0 0 300 300" style="enable-background:new 0 0 300 300;" xml:space="preserve">
<style type="text/css">
	.st0{fill:#EC1C24;}
</style>
<g>
	<path class="st0" d="M79.2,172h-9.7v-44.6h9.7c12.8,0,20.1,8.1,20.1,22.4C99.2,163.9,91.9,172,79.2,172 M215.9,132v-2.4
		c-1.5,0.5-3.7,1.3-4.7,1.8C212.8,131.5,214.4,131.7,215.9,132 M109.4,171.1l-2.7,3.8l1-10.7c0.8-8.7,6.1-15,9.9-18.4
		c-0.7,0.1-1.6,0.2-2.5,0.4l-9.6,2l6.9-6.9c2.4-2.4,5.7-4.1,8.6-5.7c0.3-0.2,0.7-0.4,1-0.6c-3.4-10-10.3-18.4-19.9-23.4
		c-6.3-3.3-12.6-4.9-21.3-5.2v-0.1H63.4c-13.8,0-20.3-0.2-25.1-1.3c-4.1-1-7.8-3.4-7.9-3.4l-1.1-0.7l0.1,1.3c0,0.4,1,9.7,12.2,17.9
		c2.1,1.6,3.7,3.1,3.7,8.6v50c0,5.3-1,6.8-3.5,8.3c-2.6,1.6-8.2,4.9-8.2,4.9l-1.9,1.1h45.3c12.7,0,20.6-2.1,29.2-7.9
		c1.2-0.8,2.3-1.7,3.4-2.6C108.9,178.7,108.9,174.7,109.4,171.1 M196.2,172.3c0.5-0.8,0.7-1.8,0.3-2.8l-2.8-7.7l7,4.2
		c0.7,0.4,1.3,0.9,1.8,1.4l4.3-0.3c3.2-0.3,6.3,0.2,9.1,1.2v-21.9c-1.6,0.5-2.8,1.1-3.3,1.6l-1.8,1.6l-1.9-1.5
		c-1.3-1-3.1-1.5-5.1-1.5c-3.3,0-6.5,1.4-8.5,3.8c-1.3,1.5-2.4,3-3.5,4.5v17.4C193.4,173.6,195.2,173.6,196.2,172.3 M248.5,111.6
		c-6.3-3.3-12.6-4.9-21.3-5.2v-0.1h-17.4c-13.8,0-20.3-0.2-25.1-1.3c-4.1-1-7.8-3.4-7.9-3.4l-1.1-0.7l0.1,1.3c0,0.4,1,9.7,12.2,17.9
		c2.2,1.6,3.7,3.1,3.7,8.6v3.6c2.4-1.5,5-2.8,7.9-3.9c-1,0.9-2.2,2.1-3.2,3.5c1.9-1.3,4.4-2.4,8.3-3.1c5.2-0.9,9.1-0.5,11.1-0.1
		v-1.4h9.7c12.8,0,20.1,8.1,20.1,22.4c0,14.1-7.3,22.2-20.1,22.2h-3.8c3.4,3.1,5.5,7.3,5.5,12c0,3.4-1.1,6.5-3,9.1
		c12.1-0.1,19.9-2.3,28.2-7.9c3.7-2.5,6.8-5.3,9.3-8.5c5.7-7.2,9-17.1,9-27.2C270.9,133.1,262.5,118.9,248.5,111.6"/>
	<path class="st0" d="M124,116.8c-0.9-9.7,3.7-15.1,5.8-17.2c4.6-4.7,10.8-7.5,20-7c14.4,0.8,21.4,10.7,21.4,21.4
		c0,5.2-2.6,12.1-6.3,16.9c-0.2-0.2-0.4-0.4-0.6-0.7c-0.7-0.7-1.5-1.4-2.4-2.2c-2.4-2.1-5.1-4.6-6.9-7.3c4-7.2,1.7-17.4-6.7-17.4
		c-4.9,0-9,4.5-8.6,10.4c-1.3,2.8-1.9,6.9-1.7,10.5c-2.4-1.5-4.4-3.2-5.4-5.4l-3.1-7.4l-2.4,7.6c-0.6,1.8-0.7,3.8-0.4,5.8
		c0,0,0,0,0,0C125.6,123.2,124.3,120.5,124,116.8 M114.5,143.3c4.1-4.1,12.6-6.7,13.1-8.9c0.6-2.2-3.8-6-5.5-6.7c6-0.2,9,0.9,9,0.9
		c-1.6-2.3-2.1-5.8-1.2-8.6c3.3,7.8,15,9.1,17.9,15.6c-0.4-2.8-3.1-6-6.2-7.8c-1.6-4.3-0.4-12.2,1.6-14.3
		c-0.7,11.3,15.4,17.8,18.8,26c-2-7-9.5-11.5-13.1-15.7c-1.2-2.8-0.3-7.5,1-9.2c-0.4,7.6,7.8,13.5,12.2,17.7c5.2,5,6.6,9.4,5.9,13
		c1.1,0.3,2.7,1.4,2.4,3.3c1.6-0.4,3.3-2.3,3.7-3.4c0.8,5.6-2.5,11.6-6.2,13.4c0,0,1-2.7-0.7-4.7c-1.7-2-6.4-2-8-1.9
		c0,0,2-2.9,1.2-4.4c-1-1.8-10.2-1-14.4,0.5c1.4-0.2,4.7,0.2,5.9,0.7c-0.6,1-2.3,5-1.1,6.3c1.1,1.1,2.6-0.8,2.6-0.8
		s-1.4,4.5-0.4,5.5c1,1,3.3,0.3,3.3,0.3c-1.4,3.5-6.8,5.9-10.5,5.9c1.3-0.4,3.6-2.8,3.9-4.3c-1,0.5-3.6,0.8-4.5,0.6
		c1.2-0.5,3.7-3.6,2.9-7.2c-1.1-5.1-8.3-5.8-11.9-3.3c1.2-3.5,4.7-6.7,7.4-7.7c-1.6-0.6-3.5-1-5.5-1.4c2.3-1.9,8.1-3.4,11-3.3
		c-4.5-1.1-12.7,0.3-16.4,4.7c1.2,0,4.3,0.6,5.5,1c-5.1,0.9-12.2,5.7-14.2,8c0.5-3,1.4-5.5,0.7-7.3
		C123.7,143.1,120.6,142,114.5,143.3 M161.1,143.9c0,0-1.2-4-5.4-5.5C156.5,141.2,157.6,143.9,161.1,143.9 M224.4,183.9
		c0-8.3-8.1-14.8-17.3-13.9c2.6,0.4,6.3,3.2,6.3,7.2c0,6.5-8.1,8.5-12.6,7.5c4.8-3.3,4.1-12.8-1.6-16.2c1.9,5.3-3.9,10.6-9.5,6
		c-3.1-2.6-10.4-8.6-13.7-11.2c-3.2-2.6-7-1.1-8.5-2.2c-1.7-1.3-0.6-4.9-2.9-6.3c-2-1.1-3.9-0.5-6.1-1.3c-2.1-0.7-3.6-2.3-3.3-4.4
		c-0.9,1.5-0.9,4.2,0.6,6c1.6,1.8,4.1,2.9,5.2,4.9c1.4,2.6-1,6.1,5.2,10.9c2.9,2.3,7.5,6.1,10.5,8.7c5,4.4,2.3,9.9,3,14.7
		c0.8,5.6,5.3,8.7,8.3,9.5c-2.6-2.3-3.6-8.3,0.1-11.9c0.2,4.7,3.6,12,11.2,14c8.2,2.2,16.9-2.5,18.7-5.7c-3.2,1.4-9.1-0.1-11.5-2.4
		C215.9,199.1,224.4,192.4,224.4,183.9 M174.7,181.8c-2.6-2.2-6.4-5.4-9.3-7.7c-3.3,5.6-10.2,12.9-17.3,12.9
		c-13,0-19.5-18.4-4.9-33.5c-0.8-0.3-1.7-0.3-2-0.3c-1.2,0-2.5,0.3-3.3,0.9l-5.7,4l1.3-7.3c0.1-0.4,0.3-0.8,0.5-1.1
		c-3.3,1.6-6.6,4-7.8,5.3l-5.6,6.2l0.6-8.7c0.1-0.7,0.3-1.3,0.4-2c0.3-1.4,0.7-3.1,0.4-3.7c-0.1-0.2-0.2-0.3-0.4-0.5
		c-2.7,2.1-10.1,8.6-10.9,18.2c0,0,1.4-2,2.7-2.5c0.8-0.3,1.5,0.1,0.8,2.5c-0.3,0.9-7.4,20.2,6.6,33.5c0,0-1.5-3.9-0.6-5.1
		c0.5-0.6,1-0.6,1.8,0.4c0.6,0.8,1.2,1.6,1.9,2.3l0,0c1.2,1.3,2.4,2.5,3.8,3.6c4.2,2.9,9.9,5.3,16.3,5.3c17.3,0,26.5-11.9,31.6-21.9
		C175.2,182.3,175,182,174.7,181.8 M204.5,140c-12.9,0.6-24,11.6-29.7,19.3c1,0.3,2.1,0.8,3.1,1.6c1.2,1,3,2.4,4.8,4
		c1.5-3.3,5-10.2,10.3-16.3c4.8-5.5,13.2-6,17.6-2.7c2.8-2.6,12.6-5,17.7-3.5c-3.1-3.4-9.8-8-17.2-8c-6.1,0-9.5,3-10.4,1.6
		c-1.1-1.7,4.1-4.3,4.1-4.3c-7.2,0.3-12.4,8.7-14.5,7.7c-1.3-0.6,1.9-4.7,1.9-4.7c-6.6,3.8-12,11.9-13.2,16.8
		C185.2,144.2,196.9,138.9,204.5,140 M206.6,172.9c1.3,0.2,3.9,1.9,3.9,4.3c0,1.4-0.7,2.6-2,3.4c-0.6,0.4-1.3,0.7-2.1,0.9
		c0.4-1.4,0.6-2.9,0.6-4.4C206.8,174.4,206.6,172.9,206.6,172.9"/>
</g>
</svg>
